# xmcd
#
# Track frame offsets: 
#        150
#        12440
#        38220
#        55550
#        70637
#        86235
#        112945
#        128927
#        146097
#        167357
#        188090
#        209410
#        218710
#
# Disc length: 3058 seconds
#
# Revision: 1
# Processed by: cddbd v1.5.1PL0 Copyright (c) Steve Scherf et al.
# Submitted via: ExactAudioCopy v0.95a5
#
DISCID=b20bf00d
DTITLE=林海 - 遠方的寂靜
DYEAR=2003
DGENRE=New Age
TTITLE0=日光告別 Goodbye In Sunlight
TTITLE1=暗香 Flowing Fragrance
TTITLE2=永恆 Eternity
TTITLE3=初秋 The Autumn Begins
TTITLE4=遠方的寂靜 Wings Of Silence
TTITLE5=夢境 In The Dream
TTITLE6=四月 April
TTITLE7=迷宮 The Labyrinth
TTITLE8=變 Change
TTITLE9=迷失 Loss
TTITLE10=存在 Existence
TTITLE11=癡迷 Intoxicated
TTITLE12=等，黎明 Waiting For The Dawn
EXTD=YEAR: 2003
EXTT0=
EXTT1=
EXTT2=
EXTT3=
EXTT4=
EXTT5=
EXTT6=
EXTT7=
EXTT8=
EXTT9=
EXTT10=
EXTT11=
EXTT12=
PLAYORDER=
